<svg width="380" height="77" viewBox="0 0 380 77" fill="none" xmlns="http://www.w3.org/2000/svg">
<path d="M71.8574 21.0063H73.3613C73.8431 21.0063 74.2402 20.925 74.5527 20.7622C74.8652 20.5929 75.0964 20.3586 75.2461 20.0591C75.4023 19.7531 75.4805 19.3983 75.4805 18.9946C75.4805 18.63 75.4089 18.3078 75.2656 18.0278C75.1289 17.7414 74.9173 17.52 74.6309 17.3638C74.3444 17.201 73.9831 17.1196 73.5469 17.1196C73.2018 17.1196 72.8828 17.188 72.5898 17.3247C72.2969 17.4614 72.0625 17.6535 71.8867 17.9009C71.7109 18.1483 71.623 18.4478 71.623 18.7993H68.8008C68.8008 18.0181 69.0091 17.3377 69.4258 16.7583C69.849 16.1789 70.4154 15.7264 71.125 15.4009C71.8346 15.0754 72.6159 14.9126 73.4688 14.9126C74.4323 14.9126 75.2754 15.0688 75.998 15.3813C76.7207 15.6873 77.2839 16.1398 77.6875 16.7388C78.0911 17.3377 78.293 18.0799 78.293 18.9653C78.293 19.4146 78.1888 19.8507 77.9805 20.2739C77.7721 20.6906 77.4727 21.0682 77.082 21.4067C76.6979 21.7388 76.2292 22.0057 75.6758 22.2075C75.1224 22.4028 74.5007 22.5005 73.8105 22.5005H71.8574V21.0063ZM71.8574 23.145V21.6899H73.8105C74.5853 21.6899 75.2656 21.7778 75.8516 21.9536C76.4375 22.1294 76.929 22.3833 77.3262 22.7153C77.7233 23.0409 78.0228 23.4282 78.2246 23.8774C78.4264 24.3201 78.5273 24.8117 78.5273 25.3521C78.5273 26.0161 78.4004 26.6086 78.1465 27.1294C77.8926 27.6437 77.5345 28.0799 77.0723 28.438C76.6165 28.7961 76.0827 29.0695 75.4707 29.2583C74.8587 29.4406 74.1914 29.5317 73.4688 29.5317C72.8698 29.5317 72.2806 29.4504 71.7012 29.2876C71.1283 29.1183 70.6074 28.8677 70.1387 28.5356C69.6764 28.1971 69.3053 27.7739 69.0254 27.2661C68.752 26.7518 68.6152 26.1431 68.6152 25.4399H71.4375C71.4375 25.8045 71.5286 26.13 71.7109 26.4165C71.8932 26.703 72.1439 26.9276 72.4629 27.0903C72.7884 27.2531 73.1497 27.3345 73.5469 27.3345C73.9961 27.3345 74.3802 27.2531 74.6992 27.0903C75.0247 26.9211 75.2721 26.6867 75.4414 26.3872C75.6172 26.0812 75.7051 25.7264 75.7051 25.3228C75.7051 24.8019 75.6107 24.3853 75.4219 24.0728C75.2331 23.7537 74.9629 23.5194 74.6113 23.3696C74.2598 23.2199 73.8431 23.145 73.3613 23.145H71.8574ZM90.1191 15.1177V16.6313L84.6211 29.3364H81.6523L87.1504 17.3149H80.0703V15.1177H90.1191ZM101.516 20.9771V23.438C101.516 24.5057 101.402 25.4269 101.174 26.2017C100.946 26.9699 100.617 27.6014 100.188 28.0962C99.7643 28.5845 99.2598 28.9458 98.6738 29.1802C98.0879 29.4146 97.4368 29.5317 96.7207 29.5317C96.1478 29.5317 95.6139 29.4601 95.1191 29.3169C94.6243 29.1672 94.1784 28.936 93.7812 28.6235C93.3906 28.311 93.0521 27.9172 92.7656 27.4419C92.4857 26.9601 92.2708 26.3872 92.1211 25.7231C91.9714 25.0591 91.8965 24.2974 91.8965 23.438V20.9771C91.8965 19.9093 92.0104 18.9946 92.2383 18.2329C92.4727 17.4647 92.8014 16.8364 93.2246 16.3481C93.6543 15.8599 94.1621 15.5018 94.748 15.2739C95.334 15.0396 95.985 14.9224 96.7012 14.9224C97.2741 14.9224 97.8047 14.9972 98.293 15.147C98.7878 15.2902 99.2337 15.5148 99.6309 15.8208C100.028 16.1268 100.367 16.5207 100.646 17.0024C100.926 17.4777 101.141 18.0474 101.291 18.7114C101.441 19.369 101.516 20.1242 101.516 20.9771ZM98.6934 23.8091V20.5962C98.6934 20.0819 98.6641 19.6326 98.6055 19.2485C98.5534 18.8644 98.472 18.5389 98.3613 18.272C98.2507 17.9985 98.1139 17.7772 97.9512 17.6079C97.7884 17.4386 97.6029 17.3149 97.3945 17.2368C97.1862 17.1587 96.9551 17.1196 96.7012 17.1196C96.3822 17.1196 96.099 17.1815 95.8516 17.3052C95.6107 17.4289 95.4056 17.6274 95.2363 17.9009C95.0671 18.1678 94.9368 18.5259 94.8457 18.9751C94.7611 19.4178 94.7188 19.9582 94.7188 20.5962V23.8091C94.7188 24.3234 94.7448 24.7759 94.7969 25.1665C94.8555 25.5571 94.9401 25.8924 95.0508 26.1724C95.168 26.4458 95.3047 26.6704 95.4609 26.8462C95.6237 27.0155 95.8092 27.1392 96.0176 27.2173C96.2324 27.2954 96.4668 27.3345 96.7207 27.3345C97.0332 27.3345 97.3099 27.2726 97.5508 27.1489C97.7982 27.0187 98.0065 26.8169 98.1758 26.5435C98.3516 26.2635 98.4818 25.8989 98.5664 25.4497C98.651 25.0005 98.6934 24.4536 98.6934 23.8091ZM106.359 14.3267V29.3364H103.547V14.3267H106.359ZM113.02 18.77L108.43 24.0044L105.969 26.4946L104.943 24.4634L106.896 21.9829L109.641 18.77H113.02ZM110.1 29.3364L106.975 24.4536L108.918 22.7544L113.342 29.3364H110.1Z" fill="black"/>
<path d="M66.3828 58.4614C66.3828 58.1958 66.3411 57.9614 66.2578 57.7583C66.1797 57.55 66.0391 57.3625 65.8359 57.1958C65.638 57.0291 65.362 56.8703 65.0078 56.7192C64.6589 56.5682 64.2161 56.4146 63.6797 56.2583C63.1172 56.0916 62.6094 55.9067 62.1562 55.7036C61.7031 55.4953 61.3151 55.2583 60.9922 54.9927C60.6693 54.7271 60.4219 54.4224 60.25 54.0786C60.0781 53.7349 59.9922 53.3416 59.9922 52.8989C59.9922 52.4562 60.0833 52.0474 60.2656 51.6724C60.4479 51.2974 60.7083 50.9718 61.0469 50.6958C61.3906 50.4146 61.7995 50.1958 62.2734 50.0396C62.7474 49.8833 63.276 49.8052 63.8594 49.8052C64.7135 49.8052 65.4375 49.9692 66.0312 50.2974C66.6302 50.6203 67.0859 51.0448 67.3984 51.5708C67.7109 52.0916 67.8672 52.6489 67.8672 53.2427H66.3672C66.3672 52.8156 66.276 52.438 66.0938 52.1099C65.9115 51.7765 65.6354 51.5161 65.2656 51.3286C64.8958 51.1359 64.4271 51.0396 63.8594 51.0396C63.3229 51.0396 62.8802 51.1203 62.5312 51.2817C62.1823 51.4432 61.9219 51.6619 61.75 51.938C61.5833 52.214 61.5 52.5291 61.5 52.8833C61.5 53.1229 61.5495 53.3416 61.6484 53.5396C61.7526 53.7323 61.9115 53.9119 62.125 54.0786C62.3438 54.2453 62.6198 54.3989 62.9531 54.5396C63.2917 54.6802 63.6953 54.8156 64.1641 54.9458C64.8099 55.1281 65.3672 55.3312 65.8359 55.5552C66.3047 55.7791 66.6901 56.0317 66.9922 56.313C67.2995 56.589 67.526 56.9041 67.6719 57.2583C67.8229 57.6073 67.8984 58.0031 67.8984 58.4458C67.8984 58.9093 67.8047 59.3286 67.6172 59.7036C67.4297 60.0786 67.1615 60.3989 66.8125 60.6646C66.4635 60.9302 66.0443 61.1359 65.5547 61.2817C65.0703 61.4224 64.5286 61.4927 63.9297 61.4927C63.4036 61.4927 62.8854 61.4198 62.375 61.2739C61.8698 61.1281 61.4089 60.9093 60.9922 60.6177C60.5807 60.326 60.25 59.9666 60 59.5396C59.7552 59.1073 59.6328 58.6073 59.6328 58.0396H61.1328C61.1328 58.4302 61.2083 58.7661 61.3594 59.0474C61.5104 59.3234 61.7161 59.5526 61.9766 59.7349C62.2422 59.9172 62.5417 60.0526 62.875 60.1411C63.2135 60.2244 63.5651 60.2661 63.9297 60.2661C64.4557 60.2661 64.901 60.1932 65.2656 60.0474C65.6302 59.9015 65.9062 59.6932 66.0938 59.4224C66.2865 59.1515 66.3828 58.8312 66.3828 58.4614ZM73.1406 52.8833V53.9927H68.5703V52.8833H73.1406ZM70.1172 50.8286H71.5625V59.2427C71.5625 59.5291 71.6068 59.7453 71.6953 59.8911C71.7839 60.0369 71.8984 60.1333 72.0391 60.1802C72.1797 60.2271 72.3307 60.2505 72.4922 60.2505C72.612 60.2505 72.737 60.2401 72.8672 60.2192C73.0026 60.1932 73.1042 60.1724 73.1719 60.1567L73.1797 61.3364C73.0651 61.3729 72.9141 61.4067 72.7266 61.438C72.5443 61.4744 72.3229 61.4927 72.0625 61.4927C71.7083 61.4927 71.3828 61.4224 71.0859 61.2817C70.7891 61.1411 70.5521 60.9067 70.375 60.5786C70.2031 60.2453 70.1172 59.7974 70.1172 59.2349V50.8286ZM80.0078 59.3833V52.8833H81.4609V61.3364H80.0781L80.0078 59.3833ZM80.2812 57.6021L80.8828 57.5864C80.8828 58.1489 80.8229 58.6698 80.7031 59.1489C80.5885 59.6229 80.401 60.0343 80.1406 60.3833C79.8802 60.7323 79.5391 61.0057 79.1172 61.2036C78.6953 61.3963 78.1823 61.4927 77.5781 61.4927C77.1667 61.4927 76.7891 61.4328 76.4453 61.313C76.1068 61.1932 75.8151 61.0083 75.5703 60.7583C75.3255 60.5083 75.1354 60.1828 75 59.7817C74.8698 59.3807 74.8047 58.8989 74.8047 58.3364V52.8833H76.25V58.3521C76.25 58.7323 76.2917 59.0474 76.375 59.2974C76.4635 59.5422 76.5807 59.7375 76.7266 59.8833C76.8776 60.0239 77.0443 60.1229 77.2266 60.1802C77.4141 60.2375 77.6068 60.2661 77.8047 60.2661C78.4193 60.2661 78.9062 60.1489 79.2656 59.9146C79.625 59.675 79.8828 59.3547 80.0391 58.9536C80.2005 58.5474 80.2812 58.0968 80.2812 57.6021ZM88.9922 59.6958V49.3364H90.4453V61.3364H89.1172L88.9922 59.6958ZM83.3047 57.2036V57.0396C83.3047 56.3937 83.3828 55.8078 83.5391 55.2817C83.7005 54.7505 83.9271 54.2948 84.2188 53.9146C84.5156 53.5343 84.8672 53.2427 85.2734 53.0396C85.6849 52.8312 86.1432 52.7271 86.6484 52.7271C87.1797 52.7271 87.6432 52.8208 88.0391 53.0083C88.4401 53.1906 88.7786 53.4588 89.0547 53.813C89.3359 54.1619 89.5573 54.5838 89.7188 55.0786C89.8802 55.5734 89.9922 56.1333 90.0547 56.7583V57.4771C89.9974 58.0968 89.8854 58.6541 89.7188 59.1489C89.5573 59.6437 89.3359 60.0656 89.0547 60.4146C88.7786 60.7635 88.4401 61.0317 88.0391 61.2192C87.638 61.4015 87.1693 61.4927 86.6328 61.4927C86.138 61.4927 85.6849 61.3859 85.2734 61.1724C84.8672 60.9588 84.5156 60.6593 84.2188 60.2739C83.9271 59.8885 83.7005 59.4354 83.5391 58.9146C83.3828 58.3885 83.3047 57.8182 83.3047 57.2036ZM84.7578 57.0396V57.2036C84.7578 57.6255 84.7995 58.0213 84.8828 58.3911C84.9714 58.7609 85.1068 59.0864 85.2891 59.3677C85.4714 59.6489 85.7031 59.8703 85.9844 60.0317C86.2656 60.188 86.6016 60.2661 86.9922 60.2661C87.4714 60.2661 87.8646 60.1646 88.1719 59.9614C88.4844 59.7583 88.7344 59.4901 88.9219 59.1567C89.1094 58.8234 89.2552 58.4614 89.3594 58.0708V56.188C89.2969 55.9015 89.2057 55.6255 89.0859 55.3599C88.9714 55.089 88.8203 54.8494 88.6328 54.6411C88.4505 54.4276 88.224 54.2583 87.9531 54.1333C87.6875 54.0083 87.3724 53.9458 87.0078 53.9458C86.612 53.9458 86.2708 54.0291 85.9844 54.1958C85.7031 54.3573 85.4714 54.5812 85.2891 54.8677C85.1068 55.1489 84.9714 55.4771 84.8828 55.8521C84.7995 56.2218 84.7578 56.6177 84.7578 57.0396ZM96.2031 61.4927C95.6146 61.4927 95.0807 61.3937 94.6016 61.1958C94.1276 60.9927 93.7188 60.7088 93.375 60.3442C93.0365 59.9797 92.776 59.5474 92.5938 59.0474C92.4115 58.5474 92.3203 58.0005 92.3203 57.4067V57.0786C92.3203 56.3911 92.4219 55.7791 92.625 55.2427C92.8281 54.701 93.1042 54.2427 93.4531 53.8677C93.8021 53.4927 94.1979 53.2088 94.6406 53.0161C95.0833 52.8234 95.5417 52.7271 96.0156 52.7271C96.6198 52.7271 97.1406 52.8312 97.5781 53.0396C98.0208 53.2479 98.3828 53.5396 98.6641 53.9146C98.9453 54.2843 99.1536 54.7218 99.2891 55.2271C99.4245 55.7271 99.4922 56.2739 99.4922 56.8677V57.5161H93.1797V56.3364H98.0469V56.2271C98.026 55.8521 97.9479 55.4875 97.8125 55.1333C97.6823 54.7791 97.474 54.4875 97.1875 54.2583C96.901 54.0291 96.5104 53.9146 96.0156 53.9146C95.6875 53.9146 95.3854 53.9849 95.1094 54.1255C94.8333 54.2609 94.5964 54.464 94.3984 54.7349C94.2005 55.0057 94.0469 55.3364 93.9375 55.7271C93.8281 56.1177 93.7734 56.5682 93.7734 57.0786V57.4067C93.7734 57.8078 93.8281 58.1854 93.9375 58.5396C94.0521 58.8885 94.2161 59.1958 94.4297 59.4614C94.6484 59.7271 94.9115 59.9354 95.2188 60.0864C95.5312 60.2375 95.8854 60.313 96.2812 60.313C96.7917 60.313 97.224 60.2088 97.5781 60.0005C97.9323 59.7922 98.2422 59.5135 98.5078 59.1646L99.3828 59.8599C99.2005 60.1359 98.9688 60.3989 98.6875 60.6489C98.4062 60.8989 98.0599 61.1021 97.6484 61.2583C97.2422 61.4146 96.7604 61.4927 96.2031 61.4927ZM102.625 54.688V61.3364H101.18V52.8833H102.547L102.625 54.688ZM102.281 56.7896L101.68 56.7661C101.685 56.188 101.771 55.6541 101.938 55.1646C102.104 54.6698 102.339 54.2401 102.641 53.8755C102.943 53.5109 103.302 53.2297 103.719 53.0317C104.141 52.8286 104.607 52.7271 105.117 52.7271C105.534 52.7271 105.909 52.7843 106.242 52.8989C106.576 53.0083 106.859 53.1854 107.094 53.4302C107.333 53.675 107.516 53.9927 107.641 54.3833C107.766 54.7687 107.828 55.2401 107.828 55.7974V61.3364H106.375V55.7817C106.375 55.339 106.31 54.9849 106.18 54.7192C106.049 54.4484 105.859 54.2531 105.609 54.1333C105.359 54.0083 105.052 53.9458 104.688 53.9458C104.328 53.9458 104 54.0213 103.703 54.1724C103.411 54.3234 103.159 54.5317 102.945 54.7974C102.737 55.063 102.573 55.3677 102.453 55.7114C102.339 56.05 102.281 56.4093 102.281 56.7896ZM113.562 52.8833V53.9927H108.992V52.8833H113.562ZM110.539 50.8286H111.984V59.2427C111.984 59.5291 112.029 59.7453 112.117 59.8911C112.206 60.0369 112.32 60.1333 112.461 60.1802C112.602 60.2271 112.753 60.2505 112.914 60.2505C113.034 60.2505 113.159 60.2401 113.289 60.2192C113.424 60.1932 113.526 60.1724 113.594 60.1567L113.602 61.3364C113.487 61.3729 113.336 61.4067 113.148 61.438C112.966 61.4744 112.745 61.4927 112.484 61.4927C112.13 61.4927 111.805 61.4224 111.508 61.2817C111.211 61.1411 110.974 60.9067 110.797 60.5786C110.625 60.2453 110.539 59.7974 110.539 59.2349V50.8286ZM120.18 59.0942C120.18 58.8859 120.133 58.6932 120.039 58.5161C119.951 58.3338 119.766 58.1698 119.484 58.0239C119.208 57.8729 118.792 57.7427 118.234 57.6333C117.766 57.5343 117.341 57.4172 116.961 57.2817C116.586 57.1463 116.266 56.9823 116 56.7896C115.74 56.5968 115.539 56.3703 115.398 56.1099C115.258 55.8494 115.188 55.5448 115.188 55.1958C115.188 54.8625 115.26 54.5474 115.406 54.2505C115.557 53.9536 115.768 53.6906 116.039 53.4614C116.315 53.2323 116.646 53.0526 117.031 52.9224C117.417 52.7922 117.846 52.7271 118.32 52.7271C118.997 52.7271 119.576 52.8468 120.055 53.0864C120.534 53.326 120.901 53.6463 121.156 54.0474C121.411 54.4432 121.539 54.8833 121.539 55.3677H120.094C120.094 55.1333 120.023 54.9067 119.883 54.688C119.747 54.464 119.547 54.2791 119.281 54.1333C119.021 53.9875 118.701 53.9146 118.32 53.9146C117.919 53.9146 117.594 53.9771 117.344 54.1021C117.099 54.2218 116.919 54.3755 116.805 54.563C116.695 54.7505 116.641 54.9484 116.641 55.1567C116.641 55.313 116.667 55.4536 116.719 55.5786C116.776 55.6984 116.875 55.8104 117.016 55.9146C117.156 56.0135 117.354 56.1073 117.609 56.1958C117.865 56.2843 118.19 56.3729 118.586 56.4614C119.279 56.6177 119.849 56.8052 120.297 57.0239C120.745 57.2427 121.078 57.5109 121.297 57.8286C121.516 58.1463 121.625 58.5317 121.625 58.9849C121.625 59.3547 121.547 59.6932 121.391 60.0005C121.24 60.3078 121.018 60.5734 120.727 60.7974C120.44 61.0161 120.096 61.188 119.695 61.313C119.299 61.4328 118.854 61.4927 118.359 61.4927C117.615 61.4927 116.984 61.3599 116.469 61.0942C115.953 60.8286 115.562 60.4849 115.297 60.063C115.031 59.6411 114.898 59.1958 114.898 58.7271H116.352C116.372 59.1229 116.487 59.438 116.695 59.6724C116.904 59.9015 117.159 60.0656 117.461 60.1646C117.763 60.2583 118.062 60.3052 118.359 60.3052C118.755 60.3052 119.086 60.2531 119.352 60.1489C119.622 60.0448 119.828 59.9015 119.969 59.7192C120.109 59.5369 120.18 59.3286 120.18 59.0942Z" fill="black"/>
<path d="M273.832 15.0884V29.3364H271.02V18.3306L267.641 19.4048V17.188L273.529 15.0884H273.832ZM288.031 20.9771V23.438C288.031 24.5057 287.917 25.4269 287.689 26.2017C287.462 26.9699 287.133 27.6014 286.703 28.0962C286.28 28.5845 285.775 28.9458 285.189 29.1802C284.604 29.4146 283.952 29.5317 283.236 29.5317C282.663 29.5317 282.13 29.4601 281.635 29.3169C281.14 29.1672 280.694 28.936 280.297 28.6235C279.906 28.311 279.568 27.9172 279.281 27.4419C279.001 26.9601 278.786 26.3872 278.637 25.7231C278.487 25.0591 278.412 24.2974 278.412 23.438V20.9771C278.412 19.9093 278.526 18.9946 278.754 18.2329C278.988 17.4647 279.317 16.8364 279.74 16.3481C280.17 15.8599 280.678 15.5018 281.264 15.2739C281.85 15.0396 282.501 14.9224 283.217 14.9224C283.79 14.9224 284.32 14.9972 284.809 15.147C285.303 15.2902 285.749 15.5148 286.146 15.8208C286.544 16.1268 286.882 16.5207 287.162 17.0024C287.442 17.4777 287.657 18.0474 287.807 18.7114C287.956 19.369 288.031 20.1242 288.031 20.9771ZM285.209 23.8091V20.5962C285.209 20.0819 285.18 19.6326 285.121 19.2485C285.069 18.8644 284.988 18.5389 284.877 18.272C284.766 17.9985 284.63 17.7772 284.467 17.6079C284.304 17.4386 284.118 17.3149 283.91 17.2368C283.702 17.1587 283.471 17.1196 283.217 17.1196C282.898 17.1196 282.615 17.1815 282.367 17.3052C282.126 17.4289 281.921 17.6274 281.752 17.9009C281.583 18.1678 281.452 18.5259 281.361 18.9751C281.277 19.4178 281.234 19.9582 281.234 20.5962V23.8091C281.234 24.3234 281.26 24.7759 281.312 25.1665C281.371 25.5571 281.456 25.8924 281.566 26.1724C281.684 26.4458 281.82 26.6704 281.977 26.8462C282.139 27.0155 282.325 27.1392 282.533 27.2173C282.748 27.2954 282.982 27.3345 283.236 27.3345C283.549 27.3345 283.826 27.2726 284.066 27.1489C284.314 27.0187 284.522 26.8169 284.691 26.5435C284.867 26.2635 284.997 25.8989 285.082 25.4497C285.167 25.0005 285.209 24.4536 285.209 23.8091ZM299.516 20.9771V23.438C299.516 24.5057 299.402 25.4269 299.174 26.2017C298.946 26.9699 298.617 27.6014 298.188 28.0962C297.764 28.5845 297.26 28.9458 296.674 29.1802C296.088 29.4146 295.437 29.5317 294.721 29.5317C294.148 29.5317 293.614 29.4601 293.119 29.3169C292.624 29.1672 292.178 28.936 291.781 28.6235C291.391 28.311 291.052 27.9172 290.766 27.4419C290.486 26.9601 290.271 26.3872 290.121 25.7231C289.971 25.0591 289.896 24.2974 289.896 23.438V20.9771C289.896 19.9093 290.01 18.9946 290.238 18.2329C290.473 17.4647 290.801 16.8364 291.225 16.3481C291.654 15.8599 292.162 15.5018 292.748 15.2739C293.334 15.0396 293.985 14.9224 294.701 14.9224C295.274 14.9224 295.805 14.9972 296.293 15.147C296.788 15.2902 297.234 15.5148 297.631 15.8208C298.028 16.1268 298.367 16.5207 298.646 17.0024C298.926 17.4777 299.141 18.0474 299.291 18.7114C299.441 19.369 299.516 20.1242 299.516 20.9771ZM296.693 23.8091V20.5962C296.693 20.0819 296.664 19.6326 296.605 19.2485C296.553 18.8644 296.472 18.5389 296.361 18.272C296.251 17.9985 296.114 17.7772 295.951 17.6079C295.788 17.4386 295.603 17.3149 295.395 17.2368C295.186 17.1587 294.955 17.1196 294.701 17.1196C294.382 17.1196 294.099 17.1815 293.852 17.3052C293.611 17.4289 293.406 17.6274 293.236 17.9009C293.067 18.1678 292.937 18.5259 292.846 18.9751C292.761 19.4178 292.719 19.9582 292.719 20.5962V23.8091C292.719 24.3234 292.745 24.7759 292.797 25.1665C292.855 25.5571 292.94 25.8924 293.051 26.1724C293.168 26.4458 293.305 26.6704 293.461 26.8462C293.624 27.0155 293.809 27.1392 294.018 27.2173C294.232 27.2954 294.467 27.3345 294.721 27.3345C295.033 27.3345 295.31 27.2726 295.551 27.1489C295.798 27.0187 296.007 26.8169 296.176 26.5435C296.352 26.2635 296.482 25.8989 296.566 25.4497C296.651 25.0005 296.693 24.4536 296.693 23.8091ZM310.746 21.4165V23.8677H301V21.4165H310.746ZM307.211 17.5591V27.9106H304.545V17.5591H307.211Z" fill="black"/>
<path d="M242.32 49.9614H246.086C246.94 49.9614 247.661 50.0916 248.25 50.3521C248.844 50.6125 249.294 50.9979 249.602 51.5083C249.914 52.0135 250.07 52.6359 250.07 53.3755C250.07 53.8963 249.964 54.3729 249.75 54.8052C249.542 55.2323 249.24 55.5968 248.844 55.8989C248.453 56.1958 247.984 56.4172 247.438 56.563L247.016 56.7271H243.477L243.461 55.5005H246.133C246.674 55.5005 247.125 55.4067 247.484 55.2192C247.844 55.0265 248.115 54.7687 248.297 54.4458C248.479 54.1229 248.57 53.7661 248.57 53.3755C248.57 52.938 248.484 52.5552 248.312 52.2271C248.141 51.8989 247.87 51.6463 247.5 51.4692C247.135 51.2869 246.664 51.1958 246.086 51.1958H243.828V61.3364H242.32V49.9614ZM248.969 61.3364L246.203 56.1802L247.773 56.1724L250.578 61.2427V61.3364H248.969ZM255.469 61.4927C254.88 61.4927 254.346 61.3937 253.867 61.1958C253.393 60.9927 252.984 60.7088 252.641 60.3442C252.302 59.9797 252.042 59.5474 251.859 59.0474C251.677 58.5474 251.586 58.0005 251.586 57.4067V57.0786C251.586 56.3911 251.688 55.7791 251.891 55.2427C252.094 54.701 252.37 54.2427 252.719 53.8677C253.068 53.4927 253.464 53.2088 253.906 53.0161C254.349 52.8234 254.807 52.7271 255.281 52.7271C255.885 52.7271 256.406 52.8312 256.844 53.0396C257.286 53.2479 257.648 53.5396 257.93 53.9146C258.211 54.2843 258.419 54.7218 258.555 55.2271C258.69 55.7271 258.758 56.2739 258.758 56.8677V57.5161H252.445V56.3364H257.312V56.2271C257.292 55.8521 257.214 55.4875 257.078 55.1333C256.948 54.7791 256.74 54.4875 256.453 54.2583C256.167 54.0291 255.776 53.9146 255.281 53.9146C254.953 53.9146 254.651 53.9849 254.375 54.1255C254.099 54.2609 253.862 54.464 253.664 54.7349C253.466 55.0057 253.312 55.3364 253.203 55.7271C253.094 56.1177 253.039 56.5682 253.039 57.0786V57.4067C253.039 57.8078 253.094 58.1854 253.203 58.5396C253.318 58.8885 253.482 59.1958 253.695 59.4614C253.914 59.7271 254.177 59.9354 254.484 60.0864C254.797 60.2375 255.151 60.313 255.547 60.313C256.057 60.313 256.49 60.2088 256.844 60.0005C257.198 59.7922 257.508 59.5135 257.773 59.1646L258.648 59.8599C258.466 60.1359 258.234 60.3989 257.953 60.6489C257.672 60.8989 257.326 61.1021 256.914 61.2583C256.508 61.4146 256.026 61.4927 255.469 61.4927ZM263.828 60.3052C264.172 60.3052 264.49 60.2349 264.781 60.0942C265.073 59.9536 265.312 59.7609 265.5 59.5161C265.688 59.2661 265.794 58.9823 265.82 58.6646H267.195C267.169 59.1646 267 59.6307 266.688 60.063C266.38 60.4901 265.977 60.8364 265.477 61.1021C264.977 61.3625 264.427 61.4927 263.828 61.4927C263.193 61.4927 262.638 61.3807 262.164 61.1567C261.695 60.9328 261.305 60.6255 260.992 60.2349C260.685 59.8442 260.453 59.3963 260.297 58.8911C260.146 58.3807 260.07 57.8416 260.07 57.2739V56.9458C260.07 56.3781 260.146 55.8416 260.297 55.3364C260.453 54.826 260.685 54.3755 260.992 53.9849C261.305 53.5942 261.695 53.2869 262.164 53.063C262.638 52.839 263.193 52.7271 263.828 52.7271C264.49 52.7271 265.068 52.8625 265.562 53.1333C266.057 53.3989 266.445 53.7635 266.727 54.2271C267.013 54.6854 267.169 55.2062 267.195 55.7896H265.82C265.794 55.4406 265.695 55.1255 265.523 54.8442C265.357 54.563 265.128 54.339 264.836 54.1724C264.549 54.0005 264.214 53.9146 263.828 53.9146C263.385 53.9146 263.013 54.0031 262.711 54.1802C262.414 54.3521 262.177 54.5864 262 54.8833C261.828 55.175 261.703 55.5005 261.625 55.8599C261.552 56.214 261.516 56.576 261.516 56.9458V57.2739C261.516 57.6437 261.552 58.0083 261.625 58.3677C261.698 58.7271 261.82 59.0526 261.992 59.3442C262.169 59.6359 262.406 59.8703 262.703 60.0474C263.005 60.2192 263.38 60.3052 263.828 60.3052ZM268.438 57.2036V57.0239C268.438 56.4146 268.526 55.8494 268.703 55.3286C268.88 54.8026 269.135 54.3468 269.469 53.9614C269.802 53.5708 270.206 53.2687 270.68 53.0552C271.154 52.8364 271.685 52.7271 272.273 52.7271C272.867 52.7271 273.401 52.8364 273.875 53.0552C274.354 53.2687 274.76 53.5708 275.094 53.9614C275.432 54.3468 275.69 54.8026 275.867 55.3286C276.044 55.8494 276.133 56.4146 276.133 57.0239V57.2036C276.133 57.813 276.044 58.3781 275.867 58.8989C275.69 59.4198 275.432 59.8755 275.094 60.2661C274.76 60.6515 274.357 60.9536 273.883 61.1724C273.414 61.3859 272.883 61.4927 272.289 61.4927C271.695 61.4927 271.161 61.3859 270.688 61.1724C270.214 60.9536 269.807 60.6515 269.469 60.2661C269.135 59.8755 268.88 59.4198 268.703 58.8989C268.526 58.3781 268.438 57.813 268.438 57.2036ZM269.883 57.0239V57.2036C269.883 57.6255 269.932 58.0239 270.031 58.3989C270.13 58.7687 270.279 59.0968 270.477 59.3833C270.68 59.6698 270.932 59.8963 271.234 60.063C271.536 60.2244 271.888 60.3052 272.289 60.3052C272.685 60.3052 273.031 60.2244 273.328 60.063C273.63 59.8963 273.88 59.6698 274.078 59.3833C274.276 59.0968 274.424 58.7687 274.523 58.3989C274.628 58.0239 274.68 57.6255 274.68 57.2036V57.0239C274.68 56.6073 274.628 56.214 274.523 55.8442C274.424 55.4692 274.273 55.1385 274.07 54.8521C273.872 54.5604 273.622 54.3312 273.32 54.1646C273.023 53.9979 272.674 53.9146 272.273 53.9146C271.878 53.9146 271.529 53.9979 271.227 54.1646C270.93 54.3312 270.68 54.5604 270.477 54.8521C270.279 55.1385 270.13 55.4692 270.031 55.8442C269.932 56.214 269.883 56.6073 269.883 57.0239ZM283.422 52.8833H284.734V61.1567C284.734 61.9015 284.583 62.5369 284.281 63.063C283.979 63.589 283.557 63.9875 283.016 64.2583C282.479 64.5343 281.859 64.6724 281.156 64.6724C280.865 64.6724 280.521 64.6255 280.125 64.5317C279.734 64.4432 279.349 64.2896 278.969 64.0708C278.594 63.8573 278.279 63.5682 278.023 63.2036L278.781 62.3442C279.135 62.7713 279.505 63.0682 279.891 63.2349C280.281 63.4015 280.667 63.4849 281.047 63.4849C281.505 63.4849 281.901 63.3989 282.234 63.2271C282.568 63.0552 282.826 62.8 283.008 62.4614C283.195 62.1281 283.289 61.7166 283.289 61.2271V54.7427L283.422 52.8833ZM277.602 57.2036V57.0396C277.602 56.3937 277.677 55.8078 277.828 55.2817C277.984 54.7505 278.206 54.2948 278.492 53.9146C278.784 53.5343 279.135 53.2427 279.547 53.0396C279.958 52.8312 280.422 52.7271 280.938 52.7271C281.469 52.7271 281.932 52.8208 282.328 53.0083C282.729 53.1906 283.068 53.4588 283.344 53.813C283.625 54.1619 283.846 54.5838 284.008 55.0786C284.169 55.5734 284.281 56.1333 284.344 56.7583V57.4771C284.286 58.0968 284.174 58.6541 284.008 59.1489C283.846 59.6437 283.625 60.0656 283.344 60.4146C283.068 60.7635 282.729 61.0317 282.328 61.2192C281.927 61.4015 281.458 61.4927 280.922 61.4927C280.417 61.4927 279.958 61.3859 279.547 61.1724C279.141 60.9588 278.792 60.6593 278.5 60.2739C278.208 59.8885 277.984 59.4354 277.828 58.9146C277.677 58.3885 277.602 57.8182 277.602 57.2036ZM279.047 57.0396V57.2036C279.047 57.6255 279.089 58.0213 279.172 58.3911C279.26 58.7609 279.393 59.0864 279.57 59.3677C279.753 59.6489 279.984 59.8703 280.266 60.0317C280.547 60.188 280.883 60.2661 281.273 60.2661C281.753 60.2661 282.148 60.1646 282.461 59.9614C282.773 59.7583 283.021 59.4901 283.203 59.1567C283.391 58.8234 283.536 58.4614 283.641 58.0708V56.188C283.583 55.9015 283.495 55.6255 283.375 55.3599C283.26 55.089 283.109 54.8494 282.922 54.6411C282.74 54.4276 282.513 54.2583 282.242 54.1333C281.971 54.0083 281.654 53.9458 281.289 53.9458C280.893 53.9458 280.552 54.0291 280.266 54.1958C279.984 54.3573 279.753 54.5812 279.57 54.8677C279.393 55.1489 279.26 55.4771 279.172 55.8521C279.089 56.2218 279.047 56.6177 279.047 57.0396ZM288.375 54.688V61.3364H286.93V52.8833H288.297L288.375 54.688ZM288.031 56.7896L287.43 56.7661C287.435 56.188 287.521 55.6541 287.688 55.1646C287.854 54.6698 288.089 54.2401 288.391 53.8755C288.693 53.5109 289.052 53.2297 289.469 53.0317C289.891 52.8286 290.357 52.7271 290.867 52.7271C291.284 52.7271 291.659 52.7843 291.992 52.8989C292.326 53.0083 292.609 53.1854 292.844 53.4302C293.083 53.675 293.266 53.9927 293.391 54.3833C293.516 54.7687 293.578 55.2401 293.578 55.7974V61.3364H292.125V55.7817C292.125 55.339 292.06 54.9849 291.93 54.7192C291.799 54.4484 291.609 54.2531 291.359 54.1333C291.109 54.0083 290.802 53.9458 290.438 53.9458C290.078 53.9458 289.75 54.0213 289.453 54.1724C289.161 54.3234 288.909 54.5317 288.695 54.7974C288.487 55.063 288.323 55.3677 288.203 55.7114C288.089 56.05 288.031 56.4093 288.031 56.7896ZM297.344 52.8833V61.3364H295.891V52.8833H297.344ZM295.781 50.6411C295.781 50.4067 295.852 50.2088 295.992 50.0474C296.138 49.8859 296.352 49.8052 296.633 49.8052C296.909 49.8052 297.12 49.8859 297.266 50.0474C297.417 50.2088 297.492 50.4067 297.492 50.6411C297.492 50.8651 297.417 51.0578 297.266 51.2192C297.12 51.3755 296.909 51.4536 296.633 51.4536C296.352 51.4536 296.138 51.3755 295.992 51.2192C295.852 51.0578 295.781 50.8651 295.781 50.6411ZM303.203 52.8833V53.9927H298.633V52.8833H303.203ZM300.18 50.8286H301.625V59.2427C301.625 59.5291 301.669 59.7453 301.758 59.8911C301.846 60.0369 301.961 60.1333 302.102 60.1802C302.242 60.2271 302.393 60.2505 302.555 60.2505C302.674 60.2505 302.799 60.2401 302.93 60.2192C303.065 60.1932 303.167 60.1724 303.234 60.1567L303.242 61.3364C303.128 61.3729 302.977 61.4067 302.789 61.438C302.607 61.4744 302.385 61.4927 302.125 61.4927C301.771 61.4927 301.445 61.4224 301.148 61.2817C300.852 61.1411 300.615 60.9067 300.438 60.5786C300.266 60.2453 300.18 59.7974 300.18 59.2349V50.8286ZM306.469 52.8833V61.3364H305.016V52.8833H306.469ZM304.906 50.6411C304.906 50.4067 304.977 50.2088 305.117 50.0474C305.263 49.8859 305.477 49.8052 305.758 49.8052C306.034 49.8052 306.245 49.8859 306.391 50.0474C306.542 50.2088 306.617 50.4067 306.617 50.6411C306.617 50.8651 306.542 51.0578 306.391 51.2192C306.245 51.3755 306.034 51.4536 305.758 51.4536C305.477 51.4536 305.263 51.3755 305.117 51.2192C304.977 51.0578 304.906 50.8651 304.906 50.6411ZM308.406 57.2036V57.0239C308.406 56.4146 308.495 55.8494 308.672 55.3286C308.849 54.8026 309.104 54.3468 309.438 53.9614C309.771 53.5708 310.174 53.2687 310.648 53.0552C311.122 52.8364 311.654 52.7271 312.242 52.7271C312.836 52.7271 313.37 52.8364 313.844 53.0552C314.323 53.2687 314.729 53.5708 315.062 53.9614C315.401 54.3468 315.659 54.8026 315.836 55.3286C316.013 55.8494 316.102 56.4146 316.102 57.0239V57.2036C316.102 57.813 316.013 58.3781 315.836 58.8989C315.659 59.4198 315.401 59.8755 315.062 60.2661C314.729 60.6515 314.326 60.9536 313.852 61.1724C313.383 61.3859 312.852 61.4927 312.258 61.4927C311.664 61.4927 311.13 61.3859 310.656 61.1724C310.182 60.9536 309.776 60.6515 309.438 60.2661C309.104 59.8755 308.849 59.4198 308.672 58.8989C308.495 58.3781 308.406 57.813 308.406 57.2036ZM309.852 57.0239V57.2036C309.852 57.6255 309.901 58.0239 310 58.3989C310.099 58.7687 310.247 59.0968 310.445 59.3833C310.648 59.6698 310.901 59.8963 311.203 60.063C311.505 60.2244 311.857 60.3052 312.258 60.3052C312.654 60.3052 313 60.2244 313.297 60.063C313.599 59.8963 313.849 59.6698 314.047 59.3833C314.245 59.0968 314.393 58.7687 314.492 58.3989C314.596 58.0239 314.648 57.6255 314.648 57.2036V57.0239C314.648 56.6073 314.596 56.214 314.492 55.8442C314.393 55.4692 314.242 55.1385 314.039 54.8521C313.841 54.5604 313.591 54.3312 313.289 54.1646C312.992 53.9979 312.643 53.9146 312.242 53.9146C311.846 53.9146 311.497 53.9979 311.195 54.1646C310.898 54.3312 310.648 54.5604 310.445 54.8521C310.247 55.1385 310.099 55.4692 310 55.8442C309.901 56.214 309.852 56.6073 309.852 57.0239ZM319.359 54.688V61.3364H317.914V52.8833H319.281L319.359 54.688ZM319.016 56.7896L318.414 56.7661C318.419 56.188 318.505 55.6541 318.672 55.1646C318.839 54.6698 319.073 54.2401 319.375 53.8755C319.677 53.5109 320.036 53.2297 320.453 53.0317C320.875 52.8286 321.341 52.7271 321.852 52.7271C322.268 52.7271 322.643 52.7843 322.977 52.8989C323.31 53.0083 323.594 53.1854 323.828 53.4302C324.068 53.675 324.25 53.9927 324.375 54.3833C324.5 54.7687 324.562 55.2401 324.562 55.7974V61.3364H323.109V55.7817C323.109 55.339 323.044 54.9849 322.914 54.7192C322.784 54.4484 322.594 54.2531 322.344 54.1333C322.094 54.0083 321.786 53.9458 321.422 53.9458C321.062 53.9458 320.734 54.0213 320.438 54.1724C320.146 54.3234 319.893 54.5317 319.68 54.7974C319.471 55.063 319.307 55.3677 319.188 55.7114C319.073 56.05 319.016 56.4093 319.016 56.7896Z" fill="black"/>
</svg>
