<svg width="380" height="77" viewBox="0 0 380 77" fill="none" xmlns="http://www.w3.org/2000/svg">
<path d="M78.293 21.4165V23.8677H68.5469V21.4165H78.293ZM74.7578 17.5591V27.9106H72.0918V17.5591H74.7578ZM89.6016 27.1392V29.3364H79.875V27.4614L84.4746 22.5298C84.9368 22.0155 85.3014 21.563 85.5684 21.1724C85.8353 20.7752 86.0273 20.4204 86.1445 20.1079C86.2682 19.7889 86.3301 19.4862 86.3301 19.1997C86.3301 18.77 86.2585 18.4022 86.1152 18.0962C85.972 17.7837 85.7604 17.5428 85.4805 17.3735C85.207 17.2043 84.8685 17.1196 84.4648 17.1196C84.0352 17.1196 83.6641 17.2238 83.3516 17.4321C83.0456 17.6405 82.8112 17.9302 82.6484 18.3013C82.4922 18.6724 82.4141 19.0923 82.4141 19.561H79.5918C79.5918 18.7147 79.7936 17.9399 80.1973 17.2368C80.6009 16.5272 81.1706 15.964 81.9062 15.5474C82.6419 15.1242 83.5143 14.9126 84.5234 14.9126C85.5195 14.9126 86.3594 15.0754 87.043 15.4009C87.7331 15.7199 88.2539 16.1821 88.6055 16.7876C88.9635 17.3866 89.1426 18.1027 89.1426 18.936C89.1426 19.4048 89.0677 19.8638 88.918 20.313C88.7682 20.7557 88.5534 21.1984 88.2734 21.6411C88 22.0773 87.668 22.52 87.2773 22.9692C86.8867 23.4185 86.4538 23.884 85.9785 24.3657L83.5078 27.1392H89.6016ZM100.93 20.9771V23.438C100.93 24.5057 100.816 25.4269 100.588 26.2017C100.36 26.9699 100.031 27.6014 99.6016 28.0962C99.1784 28.5845 98.6738 28.9458 98.0879 29.1802C97.502 29.4146 96.8509 29.5317 96.1348 29.5317C95.5618 29.5317 95.028 29.4601 94.5332 29.3169C94.0384 29.1672 93.5924 28.936 93.1953 28.6235C92.8047 28.311 92.4661 27.9172 92.1797 27.4419C91.8997 26.9601 91.6849 26.3872 91.5352 25.7231C91.3854 25.0591 91.3105 24.2974 91.3105 23.438V20.9771C91.3105 19.9093 91.4245 18.9946 91.6523 18.2329C91.8867 17.4647 92.2155 16.8364 92.6387 16.3481C93.0684 15.8599 93.5762 15.5018 94.1621 15.2739C94.748 15.0396 95.3991 14.9224 96.1152 14.9224C96.6882 14.9224 97.2188 14.9972 97.707 15.147C98.2018 15.2902 98.6478 15.5148 99.0449 15.8208C99.4421 16.1268 99.7806 16.5207 100.061 17.0024C100.34 17.4777 100.555 18.0474 100.705 18.7114C100.855 19.369 100.93 20.1242 100.93 20.9771ZM98.1074 23.8091V20.5962C98.1074 20.0819 98.0781 19.6326 98.0195 19.2485C97.9674 18.8644 97.8861 18.5389 97.7754 18.272C97.6647 17.9985 97.528 17.7772 97.3652 17.6079C97.2025 17.4386 97.0169 17.3149 96.8086 17.2368C96.6003 17.1587 96.3691 17.1196 96.1152 17.1196C95.7962 17.1196 95.513 17.1815 95.2656 17.3052C95.0247 17.4289 94.8197 17.6274 94.6504 17.9009C94.4811 18.1678 94.3509 18.5259 94.2598 18.9751C94.1751 19.4178 94.1328 19.9582 94.1328 20.5962V23.8091C94.1328 24.3234 94.1589 24.7759 94.2109 25.1665C94.2695 25.5571 94.3542 25.8924 94.4648 26.1724C94.582 26.4458 94.7188 26.6704 94.875 26.8462C95.0378 27.0155 95.2233 27.1392 95.4316 27.2173C95.6465 27.2954 95.8809 27.3345 96.1348 27.3345C96.4473 27.3345 96.724 27.2726 96.9648 27.1489C97.2122 27.0187 97.4206 26.8169 97.5898 26.5435C97.7656 26.2635 97.8958 25.8989 97.9805 25.4497C98.0651 25.0005 98.1074 24.4536 98.1074 23.8091ZM112.414 20.9771V23.438C112.414 24.5057 112.3 25.4269 112.072 26.2017C111.844 26.9699 111.516 27.6014 111.086 28.0962C110.663 28.5845 110.158 28.9458 109.572 29.1802C108.986 29.4146 108.335 29.5317 107.619 29.5317C107.046 29.5317 106.512 29.4601 106.018 29.3169C105.523 29.1672 105.077 28.936 104.68 28.6235C104.289 28.311 103.951 27.9172 103.664 27.4419C103.384 26.9601 103.169 26.3872 103.02 25.7231C102.87 25.0591 102.795 24.2974 102.795 23.438V20.9771C102.795 19.9093 102.909 18.9946 103.137 18.2329C103.371 17.4647 103.7 16.8364 104.123 16.3481C104.553 15.8599 105.061 15.5018 105.646 15.2739C106.232 15.0396 106.883 14.9224 107.6 14.9224C108.173 14.9224 108.703 14.9972 109.191 15.147C109.686 15.2902 110.132 15.5148 110.529 15.8208C110.926 16.1268 111.265 16.5207 111.545 17.0024C111.825 17.4777 112.04 18.0474 112.189 18.7114C112.339 19.369 112.414 20.1242 112.414 20.9771ZM109.592 23.8091V20.5962C109.592 20.0819 109.562 19.6326 109.504 19.2485C109.452 18.8644 109.37 18.5389 109.26 18.272C109.149 17.9985 109.012 17.7772 108.85 17.6079C108.687 17.4386 108.501 17.3149 108.293 17.2368C108.085 17.1587 107.854 17.1196 107.6 17.1196C107.281 17.1196 106.997 17.1815 106.75 17.3052C106.509 17.4289 106.304 17.6274 106.135 17.9009C105.965 18.1678 105.835 18.5259 105.744 18.9751C105.66 19.4178 105.617 19.9582 105.617 20.5962V23.8091C105.617 24.3234 105.643 24.7759 105.695 25.1665C105.754 25.5571 105.839 25.8924 105.949 26.1724C106.066 26.4458 106.203 26.6704 106.359 26.8462C106.522 27.0155 106.708 27.1392 106.916 27.2173C107.131 27.2954 107.365 27.3345 107.619 27.3345C107.932 27.3345 108.208 27.2726 108.449 27.1489C108.697 27.0187 108.905 26.8169 109.074 26.5435C109.25 26.2635 109.38 25.8989 109.465 25.4497C109.549 25.0005 109.592 24.4536 109.592 23.8091Z" fill="black"/>
<path d="M69.6875 57.7192H71.1875C71.1094 58.438 70.9036 59.0812 70.5703 59.6489C70.237 60.2166 69.7656 60.6672 69.1562 61.0005C68.5469 61.3286 67.7865 61.4927 66.875 61.4927C66.2083 61.4927 65.6016 61.3677 65.0547 61.1177C64.513 60.8677 64.0469 60.5135 63.6562 60.0552C63.2656 59.5916 62.9635 59.0369 62.75 58.3911C62.5417 57.7401 62.4375 57.0161 62.4375 56.2192V55.0864C62.4375 54.2896 62.5417 53.5682 62.75 52.9224C62.9635 52.2713 63.2682 51.714 63.6641 51.2505C64.0651 50.7869 64.5469 50.4302 65.1094 50.1802C65.6719 49.9302 66.3047 49.8052 67.0078 49.8052C67.8672 49.8052 68.5938 49.9666 69.1875 50.2896C69.7812 50.6125 70.2422 51.0604 70.5703 51.6333C70.9036 52.201 71.1094 52.8599 71.1875 53.6099H69.6875C69.6146 53.0786 69.4792 52.6229 69.2812 52.2427C69.0833 51.8573 68.8021 51.5604 68.4375 51.3521C68.0729 51.1437 67.5964 51.0396 67.0078 51.0396C66.5026 51.0396 66.0573 51.1359 65.6719 51.3286C65.2917 51.5213 64.9714 51.7948 64.7109 52.1489C64.4557 52.5031 64.263 52.9276 64.1328 53.4224C64.0026 53.9172 63.9375 54.4666 63.9375 55.0708V56.2192C63.9375 56.7765 63.9948 57.3 64.1094 57.7896C64.2292 58.2791 64.4089 58.7088 64.6484 59.0786C64.888 59.4484 65.1927 59.7401 65.5625 59.9536C65.9323 60.1619 66.3698 60.2661 66.875 60.2661C67.5156 60.2661 68.026 60.1646 68.4062 59.9614C68.7865 59.7583 69.0729 59.4666 69.2656 59.0864C69.4635 58.7062 69.6042 58.2505 69.6875 57.7192ZM72.6406 57.2036V57.0239C72.6406 56.4146 72.7292 55.8494 72.9062 55.3286C73.0833 54.8026 73.3385 54.3468 73.6719 53.9614C74.0052 53.5708 74.4089 53.2687 74.8828 53.0552C75.3568 52.8364 75.888 52.7271 76.4766 52.7271C77.0703 52.7271 77.6042 52.8364 78.0781 53.0552C78.5573 53.2687 78.9635 53.5708 79.2969 53.9614C79.6354 54.3468 79.8932 54.8026 80.0703 55.3286C80.2474 55.8494 80.3359 56.4146 80.3359 57.0239V57.2036C80.3359 57.813 80.2474 58.3781 80.0703 58.8989C79.8932 59.4198 79.6354 59.8755 79.2969 60.2661C78.9635 60.6515 78.5599 60.9536 78.0859 61.1724C77.6172 61.3859 77.0859 61.4927 76.4922 61.4927C75.8984 61.4927 75.3646 61.3859 74.8906 61.1724C74.4167 60.9536 74.0104 60.6515 73.6719 60.2661C73.3385 59.8755 73.0833 59.4198 72.9062 58.8989C72.7292 58.3781 72.6406 57.813 72.6406 57.2036ZM74.0859 57.0239V57.2036C74.0859 57.6255 74.1354 58.0239 74.2344 58.3989C74.3333 58.7687 74.4818 59.0968 74.6797 59.3833C74.8828 59.6698 75.1354 59.8963 75.4375 60.063C75.7396 60.2244 76.0911 60.3052 76.4922 60.3052C76.888 60.3052 77.2344 60.2244 77.5312 60.063C77.8333 59.8963 78.0833 59.6698 78.2812 59.3833C78.4792 59.0968 78.6276 58.7687 78.7266 58.3989C78.8307 58.0239 78.8828 57.6255 78.8828 57.2036V57.0239C78.8828 56.6073 78.8307 56.214 78.7266 55.8442C78.6276 55.4692 78.4766 55.1385 78.2734 54.8521C78.0755 54.5604 77.8255 54.3312 77.5234 54.1646C77.2266 53.9979 76.8776 53.9146 76.4766 53.9146C76.0807 53.9146 75.7318 53.9979 75.4297 54.1646C75.1328 54.3312 74.8828 54.5604 74.6797 54.8521C74.4818 55.1385 74.3333 55.4692 74.2344 55.8442C74.1354 56.214 74.0859 56.6073 74.0859 57.0239ZM87.3203 59.3833V52.8833H88.7734V61.3364H87.3906L87.3203 59.3833ZM87.5938 57.6021L88.1953 57.5864C88.1953 58.1489 88.1354 58.6698 88.0156 59.1489C87.901 59.6229 87.7135 60.0343 87.4531 60.3833C87.1927 60.7323 86.8516 61.0057 86.4297 61.2036C86.0078 61.3963 85.4948 61.4927 84.8906 61.4927C84.4792 61.4927 84.1016 61.4328 83.7578 61.313C83.4193 61.1932 83.1276 61.0083 82.8828 60.7583C82.638 60.5083 82.4479 60.1828 82.3125 59.7817C82.1823 59.3807 82.1172 58.8989 82.1172 58.3364V52.8833H83.5625V58.3521C83.5625 58.7323 83.6042 59.0474 83.6875 59.2974C83.776 59.5422 83.8932 59.7375 84.0391 59.8833C84.1901 60.0239 84.3568 60.1229 84.5391 60.1802C84.7266 60.2375 84.9193 60.2661 85.1172 60.2661C85.7318 60.2661 86.2188 60.1489 86.5781 59.9146C86.9375 59.675 87.1953 59.3547 87.3516 58.9536C87.513 58.5474 87.5938 58.0968 87.5938 57.6021ZM92.4219 54.2114V61.3364H90.9766V52.8833H92.3828L92.4219 54.2114ZM95.0625 52.8364L95.0547 54.1802C94.9349 54.1541 94.8203 54.1385 94.7109 54.1333C94.6068 54.1229 94.487 54.1177 94.3516 54.1177C94.0182 54.1177 93.724 54.1698 93.4688 54.2739C93.2135 54.3781 92.9974 54.5239 92.8203 54.7114C92.6432 54.8989 92.5026 55.1229 92.3984 55.3833C92.2995 55.6385 92.2344 55.9198 92.2031 56.2271L91.7969 56.4614C91.7969 55.951 91.8464 55.4718 91.9453 55.0239C92.0495 54.576 92.2083 54.1802 92.4219 53.8364C92.6354 53.4875 92.9062 53.2166 93.2344 53.0239C93.5677 52.826 93.9635 52.7271 94.4219 52.7271C94.526 52.7271 94.6458 52.7401 94.7812 52.7661C94.9167 52.7869 95.0104 52.8104 95.0625 52.8364ZM101.32 59.0942C101.32 58.8859 101.273 58.6932 101.18 58.5161C101.091 58.3338 100.906 58.1698 100.625 58.0239C100.349 57.8729 99.9323 57.7427 99.375 57.6333C98.9062 57.5343 98.4818 57.4172 98.1016 57.2817C97.7266 57.1463 97.4062 56.9823 97.1406 56.7896C96.8802 56.5968 96.6797 56.3703 96.5391 56.1099C96.3984 55.8494 96.3281 55.5448 96.3281 55.1958C96.3281 54.8625 96.401 54.5474 96.5469 54.2505C96.6979 53.9536 96.9089 53.6906 97.1797 53.4614C97.4557 53.2323 97.7865 53.0526 98.1719 52.9224C98.5573 52.7922 98.987 52.7271 99.4609 52.7271C100.138 52.7271 100.716 52.8468 101.195 53.0864C101.674 53.326 102.042 53.6463 102.297 54.0474C102.552 54.4432 102.68 54.8833 102.68 55.3677H101.234C101.234 55.1333 101.164 54.9067 101.023 54.688C100.888 54.464 100.688 54.2791 100.422 54.1333C100.161 53.9875 99.8411 53.9146 99.4609 53.9146C99.0599 53.9146 98.7344 53.9771 98.4844 54.1021C98.2396 54.2218 98.0599 54.3755 97.9453 54.563C97.8359 54.7505 97.7812 54.9484 97.7812 55.1567C97.7812 55.313 97.8073 55.4536 97.8594 55.5786C97.9167 55.6984 98.0156 55.8104 98.1562 55.9146C98.2969 56.0135 98.4948 56.1073 98.75 56.1958C99.0052 56.2843 99.3307 56.3729 99.7266 56.4614C100.419 56.6177 100.99 56.8052 101.438 57.0239C101.885 57.2427 102.219 57.5109 102.438 57.8286C102.656 58.1463 102.766 58.5317 102.766 58.9849C102.766 59.3547 102.688 59.6932 102.531 60.0005C102.38 60.3078 102.159 60.5734 101.867 60.7974C101.581 61.0161 101.237 61.188 100.836 61.313C100.44 61.4328 99.9948 61.4927 99.5 61.4927C98.7552 61.4927 98.125 61.3599 97.6094 61.0942C97.0938 60.8286 96.7031 60.4849 96.4375 60.063C96.1719 59.6411 96.0391 59.1958 96.0391 58.7271H97.4922C97.513 59.1229 97.6276 59.438 97.8359 59.6724C98.0443 59.9015 98.2995 60.0656 98.6016 60.1646C98.9036 60.2583 99.2031 60.3052 99.5 60.3052C99.8958 60.3052 100.227 60.2531 100.492 60.1489C100.763 60.0448 100.969 59.9015 101.109 59.7192C101.25 59.5369 101.32 59.3286 101.32 59.0942ZM108.172 61.4927C107.583 61.4927 107.049 61.3937 106.57 61.1958C106.096 60.9927 105.688 60.7088 105.344 60.3442C105.005 59.9797 104.745 59.5474 104.562 59.0474C104.38 58.5474 104.289 58.0005 104.289 57.4067V57.0786C104.289 56.3911 104.391 55.7791 104.594 55.2427C104.797 54.701 105.073 54.2427 105.422 53.8677C105.771 53.4927 106.167 53.2088 106.609 53.0161C107.052 52.8234 107.51 52.7271 107.984 52.7271C108.589 52.7271 109.109 52.8312 109.547 53.0396C109.99 53.2479 110.352 53.5396 110.633 53.9146C110.914 54.2843 111.122 54.7218 111.258 55.2271C111.393 55.7271 111.461 56.2739 111.461 56.8677V57.5161H105.148V56.3364H110.016V56.2271C109.995 55.8521 109.917 55.4875 109.781 55.1333C109.651 54.7791 109.443 54.4875 109.156 54.2583C108.87 54.0291 108.479 53.9146 107.984 53.9146C107.656 53.9146 107.354 53.9849 107.078 54.1255C106.802 54.2609 106.565 54.464 106.367 54.7349C106.169 55.0057 106.016 55.3364 105.906 55.7271C105.797 56.1177 105.742 56.5682 105.742 57.0786V57.4067C105.742 57.8078 105.797 58.1854 105.906 58.5396C106.021 58.8885 106.185 59.1958 106.398 59.4614C106.617 59.7271 106.88 59.9354 107.188 60.0864C107.5 60.2375 107.854 60.313 108.25 60.313C108.76 60.313 109.193 60.2088 109.547 60.0005C109.901 59.7922 110.211 59.5135 110.477 59.1646L111.352 59.8599C111.169 60.1359 110.938 60.3989 110.656 60.6489C110.375 60.8989 110.029 61.1021 109.617 61.2583C109.211 61.4146 108.729 61.4927 108.172 61.4927ZM118.07 59.0942C118.07 58.8859 118.023 58.6932 117.93 58.5161C117.841 58.3338 117.656 58.1698 117.375 58.0239C117.099 57.8729 116.682 57.7427 116.125 57.6333C115.656 57.5343 115.232 57.4172 114.852 57.2817C114.477 57.1463 114.156 56.9823 113.891 56.7896C113.63 56.5968 113.43 56.3703 113.289 56.1099C113.148 55.8494 113.078 55.5448 113.078 55.1958C113.078 54.8625 113.151 54.5474 113.297 54.2505C113.448 53.9536 113.659 53.6906 113.93 53.4614C114.206 53.2323 114.536 53.0526 114.922 52.9224C115.307 52.7922 115.737 52.7271 116.211 52.7271C116.888 52.7271 117.466 52.8468 117.945 53.0864C118.424 53.326 118.792 53.6463 119.047 54.0474C119.302 54.4432 119.43 54.8833 119.43 55.3677H117.984C117.984 55.1333 117.914 54.9067 117.773 54.688C117.638 54.464 117.438 54.2791 117.172 54.1333C116.911 53.9875 116.591 53.9146 116.211 53.9146C115.81 53.9146 115.484 53.9771 115.234 54.1021C114.99 54.2218 114.81 54.3755 114.695 54.563C114.586 54.7505 114.531 54.9484 114.531 55.1567C114.531 55.313 114.557 55.4536 114.609 55.5786C114.667 55.6984 114.766 55.8104 114.906 55.9146C115.047 56.0135 115.245 56.1073 115.5 56.1958C115.755 56.2843 116.081 56.3729 116.477 56.4614C117.169 56.6177 117.74 56.8052 118.188 57.0239C118.635 57.2427 118.969 57.5109 119.188 57.8286C119.406 58.1463 119.516 58.5317 119.516 58.9849C119.516 59.3547 119.438 59.6932 119.281 60.0005C119.13 60.3078 118.909 60.5734 118.617 60.7974C118.331 61.0161 117.987 61.188 117.586 61.313C117.19 61.4328 116.745 61.4927 116.25 61.4927C115.505 61.4927 114.875 61.3599 114.359 61.0942C113.844 60.8286 113.453 60.4849 113.188 60.063C112.922 59.6411 112.789 59.1958 112.789 58.7271H114.242C114.263 59.1229 114.378 59.438 114.586 59.6724C114.794 59.9015 115.049 60.0656 115.352 60.1646C115.654 60.2583 115.953 60.3052 116.25 60.3052C116.646 60.3052 116.977 60.2531 117.242 60.1489C117.513 60.0448 117.719 59.9015 117.859 59.7192C118 59.5369 118.07 59.3286 118.07 59.0942Z" fill="black"/>
<path d="M274.623 22.8618L272.377 22.3247L273.188 15.1177H281.176V17.3931H275.502L275.15 20.5474C275.339 20.4367 275.626 20.3195 276.01 20.1958C276.394 20.0656 276.824 20.0005 277.299 20.0005C277.989 20.0005 278.601 20.1079 279.135 20.3228C279.669 20.5376 280.121 20.8501 280.492 21.2603C280.87 21.6704 281.156 22.1717 281.352 22.7642C281.547 23.3566 281.645 24.0272 281.645 24.7759C281.645 25.4074 281.547 26.0096 281.352 26.5825C281.156 27.1489 280.86 27.6567 280.463 28.106C280.066 28.5487 279.568 28.897 278.969 29.1509C278.37 29.4048 277.66 29.5317 276.84 29.5317C276.228 29.5317 275.635 29.4406 275.062 29.2583C274.496 29.076 273.985 28.8058 273.529 28.4478C273.08 28.0897 272.719 27.6567 272.445 27.1489C272.178 26.6346 272.038 26.0487 272.025 25.3911H274.818C274.857 25.7948 274.962 26.1431 275.131 26.436C275.307 26.7225 275.538 26.9438 275.824 27.1001C276.111 27.2563 276.446 27.3345 276.83 27.3345C277.188 27.3345 277.494 27.2661 277.748 27.1294C278.002 26.9927 278.207 26.8039 278.363 26.563C278.52 26.3156 278.633 26.0291 278.705 25.7036C278.783 25.3716 278.822 25.0135 278.822 24.6294C278.822 24.2453 278.777 23.897 278.686 23.5845C278.594 23.272 278.454 23.0018 278.266 22.7739C278.077 22.5461 277.836 22.3703 277.543 22.2466C277.257 22.1229 276.921 22.061 276.537 22.061C276.016 22.061 275.613 22.1424 275.326 22.3052C275.046 22.4679 274.812 22.6535 274.623 22.8618ZM293.031 20.9771V23.438C293.031 24.5057 292.917 25.4269 292.689 26.2017C292.462 26.9699 292.133 27.6014 291.703 28.0962C291.28 28.5845 290.775 28.9458 290.189 29.1802C289.604 29.4146 288.952 29.5317 288.236 29.5317C287.663 29.5317 287.13 29.4601 286.635 29.3169C286.14 29.1672 285.694 28.936 285.297 28.6235C284.906 28.311 284.568 27.9172 284.281 27.4419C284.001 26.9601 283.786 26.3872 283.637 25.7231C283.487 25.0591 283.412 24.2974 283.412 23.438V20.9771C283.412 19.9093 283.526 18.9946 283.754 18.2329C283.988 17.4647 284.317 16.8364 284.74 16.3481C285.17 15.8599 285.678 15.5018 286.264 15.2739C286.85 15.0396 287.501 14.9224 288.217 14.9224C288.79 14.9224 289.32 14.9972 289.809 15.147C290.303 15.2902 290.749 15.5148 291.146 15.8208C291.544 16.1268 291.882 16.5207 292.162 17.0024C292.442 17.4777 292.657 18.0474 292.807 18.7114C292.956 19.369 293.031 20.1242 293.031 20.9771ZM290.209 23.8091V20.5962C290.209 20.0819 290.18 19.6326 290.121 19.2485C290.069 18.8644 289.988 18.5389 289.877 18.272C289.766 17.9985 289.63 17.7772 289.467 17.6079C289.304 17.4386 289.118 17.3149 288.91 17.2368C288.702 17.1587 288.471 17.1196 288.217 17.1196C287.898 17.1196 287.615 17.1815 287.367 17.3052C287.126 17.4289 286.921 17.6274 286.752 17.9009C286.583 18.1678 286.452 18.5259 286.361 18.9751C286.277 19.4178 286.234 19.9582 286.234 20.5962V23.8091C286.234 24.3234 286.26 24.7759 286.312 25.1665C286.371 25.5571 286.456 25.8924 286.566 26.1724C286.684 26.4458 286.82 26.6704 286.977 26.8462C287.139 27.0155 287.325 27.1392 287.533 27.2173C287.748 27.2954 287.982 27.3345 288.236 27.3345C288.549 27.3345 288.826 27.2726 289.066 27.1489C289.314 27.0187 289.522 26.8169 289.691 26.5435C289.867 26.2635 289.997 25.8989 290.082 25.4497C290.167 25.0005 290.209 24.4536 290.209 23.8091ZM298.168 15.1177V29.3364H295.238V15.1177H298.168ZM306.684 15.1177L301.049 22.1392L297.797 25.6353L297.27 22.8618L299.467 19.854L303.09 15.1177H306.684ZM303.354 29.3364L299.164 22.7642L301.332 20.9478L306.82 29.3364H303.354Z" fill="black"/>
<path d="M260.797 49.9614H262.258L265.984 59.2349L269.703 49.9614H271.172L266.547 61.3364H265.406L260.797 49.9614ZM260.32 49.9614H261.609L261.82 56.8989V61.3364H260.32V49.9614ZM270.352 49.9614H271.641V61.3364H270.141V56.8989L270.352 49.9614ZM277.578 61.4927C276.99 61.4927 276.456 61.3937 275.977 61.1958C275.503 60.9927 275.094 60.7088 274.75 60.3442C274.411 59.9797 274.151 59.5474 273.969 59.0474C273.786 58.5474 273.695 58.0005 273.695 57.4067V57.0786C273.695 56.3911 273.797 55.7791 274 55.2427C274.203 54.701 274.479 54.2427 274.828 53.8677C275.177 53.4927 275.573 53.2088 276.016 53.0161C276.458 52.8234 276.917 52.7271 277.391 52.7271C277.995 52.7271 278.516 52.8312 278.953 53.0396C279.396 53.2479 279.758 53.5396 280.039 53.9146C280.32 54.2843 280.529 54.7218 280.664 55.2271C280.799 55.7271 280.867 56.2739 280.867 56.8677V57.5161H274.555V56.3364H279.422V56.2271C279.401 55.8521 279.323 55.4875 279.188 55.1333C279.057 54.7791 278.849 54.4875 278.562 54.2583C278.276 54.0291 277.885 53.9146 277.391 53.9146C277.062 53.9146 276.76 53.9849 276.484 54.1255C276.208 54.2609 275.971 54.464 275.773 54.7349C275.576 55.0057 275.422 55.3364 275.312 55.7271C275.203 56.1177 275.148 56.5682 275.148 57.0786V57.4067C275.148 57.8078 275.203 58.1854 275.312 58.5396C275.427 58.8885 275.591 59.1958 275.805 59.4614C276.023 59.7271 276.286 59.9354 276.594 60.0864C276.906 60.2375 277.26 60.313 277.656 60.313C278.167 60.313 278.599 60.2088 278.953 60.0005C279.307 59.7922 279.617 59.5135 279.883 59.1646L280.758 59.8599C280.576 60.1359 280.344 60.3989 280.062 60.6489C279.781 60.8989 279.435 61.1021 279.023 61.2583C278.617 61.4146 278.135 61.4927 277.578 61.4927ZM284 54.688V61.3364H282.555V52.8833H283.922L284 54.688ZM283.656 56.7896L283.055 56.7661C283.06 56.188 283.146 55.6541 283.312 55.1646C283.479 54.6698 283.714 54.2401 284.016 53.8755C284.318 53.5109 284.677 53.2297 285.094 53.0317C285.516 52.8286 285.982 52.7271 286.492 52.7271C286.909 52.7271 287.284 52.7843 287.617 52.8989C287.951 53.0083 288.234 53.1854 288.469 53.4302C288.708 53.675 288.891 53.9927 289.016 54.3833C289.141 54.7687 289.203 55.2401 289.203 55.7974V61.3364H287.75V55.7817C287.75 55.339 287.685 54.9849 287.555 54.7192C287.424 54.4484 287.234 54.2531 286.984 54.1333C286.734 54.0083 286.427 53.9458 286.062 53.9458C285.703 53.9458 285.375 54.0213 285.078 54.1724C284.786 54.3234 284.534 54.5317 284.32 54.7974C284.112 55.063 283.948 55.3677 283.828 55.7114C283.714 56.05 283.656 56.4093 283.656 56.7896ZM294.938 52.8833V53.9927H290.367V52.8833H294.938ZM291.914 50.8286H293.359V59.2427C293.359 59.5291 293.404 59.7453 293.492 59.8911C293.581 60.0369 293.695 60.1333 293.836 60.1802C293.977 60.2271 294.128 60.2505 294.289 60.2505C294.409 60.2505 294.534 60.2401 294.664 60.2192C294.799 60.1932 294.901 60.1724 294.969 60.1567L294.977 61.3364C294.862 61.3729 294.711 61.4067 294.523 61.438C294.341 61.4744 294.12 61.4927 293.859 61.4927C293.505 61.4927 293.18 61.4224 292.883 61.2817C292.586 61.1411 292.349 60.9067 292.172 60.5786C292 60.2453 291.914 59.7974 291.914 59.2349V50.8286ZM296.094 57.2036V57.0239C296.094 56.4146 296.182 55.8494 296.359 55.3286C296.536 54.8026 296.792 54.3468 297.125 53.9614C297.458 53.5708 297.862 53.2687 298.336 53.0552C298.81 52.8364 299.341 52.7271 299.93 52.7271C300.523 52.7271 301.057 52.8364 301.531 53.0552C302.01 53.2687 302.417 53.5708 302.75 53.9614C303.089 54.3468 303.346 54.8026 303.523 55.3286C303.701 55.8494 303.789 56.4146 303.789 57.0239V57.2036C303.789 57.813 303.701 58.3781 303.523 58.8989C303.346 59.4198 303.089 59.8755 302.75 60.2661C302.417 60.6515 302.013 60.9536 301.539 61.1724C301.07 61.3859 300.539 61.4927 299.945 61.4927C299.352 61.4927 298.818 61.3859 298.344 61.1724C297.87 60.9536 297.464 60.6515 297.125 60.2661C296.792 59.8755 296.536 59.4198 296.359 58.8989C296.182 58.3781 296.094 57.813 296.094 57.2036ZM297.539 57.0239V57.2036C297.539 57.6255 297.589 58.0239 297.688 58.3989C297.786 58.7687 297.935 59.0968 298.133 59.3833C298.336 59.6698 298.589 59.8963 298.891 60.063C299.193 60.2244 299.544 60.3052 299.945 60.3052C300.341 60.3052 300.688 60.2244 300.984 60.063C301.286 59.8963 301.536 59.6698 301.734 59.3833C301.932 59.0968 302.081 58.7687 302.18 58.3989C302.284 58.0239 302.336 57.6255 302.336 57.2036V57.0239C302.336 56.6073 302.284 56.214 302.18 55.8442C302.081 55.4692 301.93 55.1385 301.727 54.8521C301.529 54.5604 301.279 54.3312 300.977 54.1646C300.68 53.9979 300.331 53.9146 299.93 53.9146C299.534 53.9146 299.185 53.9979 298.883 54.1646C298.586 54.3312 298.336 54.5604 298.133 54.8521C297.935 55.1385 297.786 55.4692 297.688 55.8442C297.589 56.214 297.539 56.6073 297.539 57.0239ZM307.047 54.2114V61.3364H305.602V52.8833H307.008L307.047 54.2114ZM309.688 52.8364L309.68 54.1802C309.56 54.1541 309.445 54.1385 309.336 54.1333C309.232 54.1229 309.112 54.1177 308.977 54.1177C308.643 54.1177 308.349 54.1698 308.094 54.2739C307.839 54.3781 307.622 54.5239 307.445 54.7114C307.268 54.8989 307.128 55.1229 307.023 55.3833C306.924 55.6385 306.859 55.9198 306.828 56.2271L306.422 56.4614C306.422 55.951 306.471 55.4718 306.57 55.0239C306.674 54.576 306.833 54.1802 307.047 53.8364C307.26 53.4875 307.531 53.2166 307.859 53.0239C308.193 52.826 308.589 52.7271 309.047 52.7271C309.151 52.7271 309.271 52.7401 309.406 52.7661C309.542 52.7869 309.635 52.8104 309.688 52.8364ZM315.945 59.0942C315.945 58.8859 315.898 58.6932 315.805 58.5161C315.716 58.3338 315.531 58.1698 315.25 58.0239C314.974 57.8729 314.557 57.7427 314 57.6333C313.531 57.5343 313.107 57.4172 312.727 57.2817C312.352 57.1463 312.031 56.9823 311.766 56.7896C311.505 56.5968 311.305 56.3703 311.164 56.1099C311.023 55.8494 310.953 55.5448 310.953 55.1958C310.953 54.8625 311.026 54.5474 311.172 54.2505C311.323 53.9536 311.534 53.6906 311.805 53.4614C312.081 53.2323 312.411 53.0526 312.797 52.9224C313.182 52.7922 313.612 52.7271 314.086 52.7271C314.763 52.7271 315.341 52.8468 315.82 53.0864C316.299 53.326 316.667 53.6463 316.922 54.0474C317.177 54.4432 317.305 54.8833 317.305 55.3677H315.859C315.859 55.1333 315.789 54.9067 315.648 54.688C315.513 54.464 315.312 54.2791 315.047 54.1333C314.786 53.9875 314.466 53.9146 314.086 53.9146C313.685 53.9146 313.359 53.9771 313.109 54.1021C312.865 54.2218 312.685 54.3755 312.57 54.563C312.461 54.7505 312.406 54.9484 312.406 55.1567C312.406 55.313 312.432 55.4536 312.484 55.5786C312.542 55.6984 312.641 55.8104 312.781 55.9146C312.922 56.0135 313.12 56.1073 313.375 56.1958C313.63 56.2843 313.956 56.3729 314.352 56.4614C315.044 56.6177 315.615 56.8052 316.062 57.0239C316.51 57.2427 316.844 57.5109 317.062 57.8286C317.281 58.1463 317.391 58.5317 317.391 58.9849C317.391 59.3547 317.312 59.6932 317.156 60.0005C317.005 60.3078 316.784 60.5734 316.492 60.7974C316.206 61.0161 315.862 61.188 315.461 61.313C315.065 61.4328 314.62 61.4927 314.125 61.4927C313.38 61.4927 312.75 61.3599 312.234 61.0942C311.719 60.8286 311.328 60.4849 311.062 60.063C310.797 59.6411 310.664 59.1958 310.664 58.7271H312.117C312.138 59.1229 312.253 59.438 312.461 59.6724C312.669 59.9015 312.924 60.0656 313.227 60.1646C313.529 60.2583 313.828 60.3052 314.125 60.3052C314.521 60.3052 314.852 60.2531 315.117 60.1489C315.388 60.0448 315.594 59.9015 315.734 59.7192C315.875 59.5369 315.945 59.3286 315.945 59.0942Z" fill="black"/>
</svg>
